<?xml version="1.0" encoding="UTF-8" standalone="no"?>
<!-- Generator: Adobe Illustrator 12.0.1, SVG Export Plug-In . SVG Version: 6.00 Build 51448)  -->

<svg xmlns:dc="http://purl.org/dc/elements/1.1/" xmlns:cc="http://creativecommons.org/ns#" xmlns:rdf="http://www.w3.org/1999/02/22-rdf-syntax-ns#" xmlns:svg="http://www.w3.org/2000/svg" xmlns="http://www.w3.org/2000/svg" xmlns:sodipodi="http://sodipodi.sourceforge.net/DTD/sodipodi-0.dtd" xmlns:inkscape="http://www.inkscape.org/namespaces/inkscape" version="1.1" id="Layer_1" width="1000" height="131.59555" viewBox="0 0 999.99999 131.59555" overflow="visible" enable-background="new 0 0 479.591 522.94" xml:space="preserve" inkscape:version="0.48.5 r10040" sodipodi:docname="Converse_Logo.svg" style="overflow:visible"><metadata id="metadata5522"><rdf:RDF><cc:Work rdf:about=""><dc:format>image/svg+xml</dc:format><dc:type rdf:resource="http://purl.org/dc/dcmitype/StillImage" /><dc:title></dc:title></cc:Work></rdf:RDF></metadata><defs id="defs5520">
	
	
	
	
	
	
	
	
	
	
	
</defs><sodipodi:namedview pagecolor="#ffffff" bordercolor="#666666" borderopacity="1" objecttolerance="10" gridtolerance="10" guidetolerance="10" inkscape:pageopacity="0" inkscape:pageshadow="2" inkscape:window-width="1366" inkscape:window-height="706" id="namedview5518" showgrid="false" inkscape:zoom="0.9025892" inkscape:cx="521.20689" inkscape:cy="22.549518" inkscape:window-x="-8" inkscape:window-y="-8" inkscape:window-maximized="1" inkscape:current-layer="Layer_1" fit-margin-top="0" fit-margin-left="0" fit-margin-right="0" fit-margin-bottom="0" />
<g id="g5492" transform="translate(-5.8947119e-7,-391.34545)">
		
		
	</g><g id="g3010" transform="matrix(2.08511,0,0,1.8165367,-5.8947119e-7,-818.34598)"><g transform="matrix(0.19877041,0,0,0.19877041,32.796731,441.74073)" id="g3002"><g transform="matrix(0.74559278,0,0,0.88506465,94.166978,36.484136)" id="g3006"><path d="m 108.137,420.307 c -8.794,0 -17.592,-1.755 -25.718,-5.115 -8.126,-3.36 -15.582,-8.347 -21.802,-14.567 -6.221,-6.22 -11.207,-13.675 -14.568,-21.801 -3.36,-8.126 -5.116,-16.923 -5.116,-25.716 l 0,-277.352 c 0,-8.793 1.755,-17.591 5.116,-25.717 3.361,-8.126 8.347,-15.581 14.568,-21.801 6.221,-6.22 13.676,-11.207 21.802,-14.567 8.126,-3.36 16.924,-5.115 25.718,-5.115 l 254.153,0 c 8.793,0 17.592,1.755 25.718,5.115 8.127,3.36 15.582,8.347 21.803,14.567 6.221,6.22 11.207,13.675 14.567,21.801 3.36,8.126 5.116,16.924 5.116,25.717 l 0,277.352 c 0,8.793 -1.756,17.59 -5.116,25.716 -3.36,8.126 -8.347,15.581 -14.567,21.801 -6.221,6.221 -13.676,11.207 -21.803,14.567 -8.126,3.36 -16.925,5.115 -25.718,5.115 l -254.153,0" id="path5498" style="fill:black" inkscape:connector-curvature="0" /><polyline points="167.399,251.086 122.189,405.035 241.934,307.9 370.233,405.035 317.081,251.086 418.498,166.17    288.366,166.17 241.934,26.883 194.28,166.17 55.596,166.17 167.399,251.086  " id="polyline5500" style="fill:white" /></g></g><path style="fill:black;fill-opacity:1" d="m 52.541,471.624 -30.547,0 c -0.53,0.087 -0.988,-0.088 -1.693,1.131 -0.091,0.222 -0.139,0.462 -0.139,0.701 l 0,27.491 c -0.068,0.593 0.558,1.53 1.131,1.693 0.222,0.092 0.461,0.14 0.701,0.14 l 30.547,0 0,20.159 -34.213,0 c -2.402,0.001 -4.806,-0.481 -7.022,-1.398 C 9.09,520.625 7.061,519.266 5.368,517.572 3.674,515.879 2.315,513.85 1.398,511.634 0.481,509.418 0,507.015 0,504.612 L 0,469.18 c 0,-2.403 0.481,-4.807 1.398,-7.022 0.917,-2.215 2.276,-4.244 3.97,-5.938 1.693,-1.693 3.722,-3.053 5.938,-3.969 2.216,-0.917 4.62,-1.399 7.022,-1.399 l 34.213,0 0,20.772 0,0 z" id="path5502" inkscape:connector-curvature="0" /><path style="fill:black;fill-opacity:1" d="m 158.846,522.94 0,-49.483 c 0.068,-0.593 -0.558,-1.53 -1.131,-1.693 -0.222,-0.092 -0.462,-0.14 -0.702,-0.14 l -12.219,0 c -0.53,0.087 -0.988,-0.088 -1.693,1.131 -0.092,0.222 -0.14,0.462 -0.14,0.701 l 0,49.483 -20.161,0 0,-71.476 36.656,0 c 2.403,0 4.806,0.481 7.022,1.398 2.216,0.917 4.244,2.276 5.938,3.97 1.693,1.693 3.052,3.722 3.969,5.938 0.917,2.216 1.398,4.619 1.398,7.021 l 0,53.149 -18.937,0" id="path5506" inkscape:connector-curvature="0" /><polyline style="fill:black;fill-opacity:1" points="219.94,522.939 202.223,522.939 202.223,522.939 199.779,522.939 177.785,451.463 197.946,451.463    211.082,494.151 224.217,451.463 244.377,451.463 222.383,522.939 219.94,522.939 219.94,522.939  " id="polyline5508" /><path style="fill:black;fill-opacity:1" d="m 297.53,477.122 0,18.938 -30.547,0 c -0.53,0.087 -0.988,-0.087 -1.693,1.132 -0.092,0.222 -0.14,0.462 -0.14,0.701 l 0,2.443 c -0.068,0.593 0.558,1.53 1.132,1.693 0.222,0.092 0.461,0.14 0.701,0.14 l 30.547,0 0,20.771 -34.213,0 c -2.402,0 -4.807,-0.481 -7.022,-1.398 -2.215,-0.917 -4.244,-2.275 -5.938,-3.969 -1.694,-1.694 -3.053,-3.722 -3.97,-5.938 -0.916,-2.216 -1.398,-4.619 -1.398,-7.022 l 0,-35.433 c 0,-2.402 0.482,-4.806 1.398,-7.021 0.917,-2.216 2.276,-4.244 3.97,-5.938 1.694,-1.694 3.722,-3.053 5.938,-3.969 2.216,-0.917 4.62,-1.399 7.022,-1.399 l 34.213,0 0,20.771 -30.547,0 c -0.53,0.087 -0.988,-0.088 -1.693,1.131 -0.248,1.047 -0.248,2.093 0,3.235 0.441,0.915 1.063,1.102 1.693,1.132 l 30.547,0" id="path5510" inkscape:connector-curvature="0" /><path style="fill:black;fill-opacity:1" d="m 342.74,522.94 20.772,0 -12.219,-28.103 c 2.642,-2.024 5.282,-4.05 6.708,-6.697 1.426,-2.647 1.845,-5.91 1.845,-9.186 l 0,-9.164 c 0,-2.397 -0.479,-4.797 -1.395,-7.014 -0.917,-2.216 -2.276,-4.249 -3.974,-5.945 -1.696,-1.696 -3.729,-3.057 -5.945,-3.973 -2.217,-0.917 -4.616,-1.396 -7.015,-1.396 l -36.656,0 0,71.476 20.161,0 0,-32.988 2.443,0 15.275,32.99 m -17.717,-45.818 0,-4.276 12.219,0 c 1.215,0 2.688,-0.111 3.452,0.682 0.765,0.792 0.765,2.121 0,2.913 -0.765,0.792 -2.237,0.682 -3.452,0.682 l -12.219,0" id="path5512" inkscape:connector-curvature="0" /><path style="fill:black;fill-opacity:1" d="m 420.331,450.852 0,20.771 -31.158,0 c -0.53,0.087 -0.989,-0.088 -1.693,1.131 -0.245,0.842 -0.249,1.688 0,2.625 0.44,0.915 1.063,1.101 1.693,1.131 l 18.326,0 c 1.579,0 3.159,0.185 4.604,0.519 1.445,0.334 2.755,0.822 3.866,1.396 1.111,0.574 2.023,1.231 2.765,1.968 0.741,0.737 1.311,1.553 1.8,2.594 0.49,1.04 0.899,2.306 1.188,4.015 0.289,1.709 0.44,3.861 0.44,6.006 l 0,9.162 c 0,2.74 -0.089,5.488 -0.327,7.542 -0.238,2.055 -0.581,3.414 -0.985,4.541 -0.404,1.128 -0.868,2.022 -1.47,2.838 -0.602,0.816 -1.34,1.552 -2.243,2.244 -0.903,0.691 -1.971,1.34 -3.173,1.881 -2.487,1.125 -5.441,1.728 -8.298,1.725 l -39.711,0 0,-20.771 34.213,0 c 0.53,-0.087 0.988,0.088 1.693,-1.131 0.248,-1.047 0.248,-2.093 0,-3.235 -0.44,-0.915 -1.063,-1.102 -1.693,-1.132 l -15.274,0 c -2.753,0 -5.516,-0.157 -7.635,-0.478 -2.119,-0.321 -3.595,-0.775 -4.783,-1.305 -1.188,-0.528 -2.09,-1.132 -2.844,-1.874 -0.754,-0.741 -1.36,-1.622 -1.893,-2.777 -0.532,-1.156 -0.988,-2.587 -1.31,-4.616 -0.321,-2.03 -0.475,-4.659 -0.475,-7.278 l 0,-12.219 c -0.002,-2.434 0.535,-5.048 1.681,-7.565 0.545,-1.194 1.21,-2.311 1.912,-3.261 0.702,-0.95 1.44,-1.735 2.165,-2.328 0.725,-0.594 1.437,-0.995 2.288,-1.328 0.853,-0.332 1.845,-0.595 3.487,-0.717 1.642,-0.122 3.934,-0.103 5.277,-0.092 1.343,0.011 1.737,0.02 2.133,0.02 l 35.434,0" id="path5514" inkscape:connector-curvature="0" /><path style="fill:black;fill-opacity:1" d="m 479.591,477.122 0,18.938 -30.547,0 c -0.53,0.087 -0.988,-0.087 -1.693,1.132 -0.092,0.222 -0.14,0.462 -0.14,0.701 l 0,2.443 c -0.068,0.593 0.559,1.53 1.132,1.693 0.222,0.092 0.462,0.14 0.701,0.14 l 30.547,0 0,20.771 -34.213,0 c -2.402,0 -4.806,-0.481 -7.022,-1.398 -2.216,-0.917 -4.244,-2.275 -5.938,-3.969 -1.694,-1.694 -3.053,-3.722 -3.969,-5.938 -0.917,-2.216 -1.399,-4.619 -1.399,-7.022 l 0,-35.433 c 0,-2.402 0.482,-4.806 1.399,-7.021 0.916,-2.216 2.275,-4.244 3.969,-5.938 1.694,-1.694 3.722,-3.053 5.938,-3.969 2.217,-0.917 4.62,-1.399 7.022,-1.399 l 34.213,0 0,20.771 -30.547,0 c -0.53,0.087 -0.988,-0.088 -1.693,1.131 -0.248,1.047 -0.248,2.093 0,3.235 0.441,0.915 1.063,1.102 1.693,1.132 l 30.547,0" id="path5516" inkscape:connector-curvature="0" /></g>
</svg>